<?xml version="1.0" encoding="UTF-8"?>
<svg id="nl_stars" width="18px" height="34px" viewBox="0 0 18 34" version="1.1" xmlns="http://www.w3.org/2000/svg" xmlns:xlink="http://www.w3.org/1999/xlink">
    <!-- Generator: Sketch 41.2 (35397) - http://www.bohemiancoding.com/sketch -->
    <title>Group 8</title>
    <desc>Created with Sketch.</desc>
    <defs></defs>
    <g id="Page-1" stroke="none" stroke-width="1" fill="#BFBFBF" fill-rule="evenodd">
        <g id="Mobile-Portrait-Copy-3" transform="translate(-19.000000, -337.000000)" fill="#FDFDFD">
            <g id="Group-6" transform="translate(-40.000000, 0.000000)">
                <g id="Group-8" transform="translate(59.000000, 337.000000)">
                    <path d="M7.7,34 C7.38266508,33.4679973 7.02800196,32.8963364 6.636,32.285 C6.24399804,31.6736636 5.8380021,31.0576698 5.418,30.437 C4.9979979,29.8163302 4.57100217,29.2143362 4.137,28.631 C3.70299783,28.0476638 3.29000196,27.522669 2.898,27.056 L2.898,34 L1.162,34 L1.162,24.298 L2.604,24.298 C2.9773352,24.690002 3.37866452,25.1543307 3.808,25.691 C4.23733548,26.2276693 4.66899783,26.7853304 5.103,27.364 C5.53700217,27.9426696 5.95699797,28.5236638 6.363,29.107 C6.76900203,29.6903362 7.13066508,30.2339975 7.448,30.738 L7.448,24.298 L9.198,24.298 L9.198,34 L7.7,34 Z M17.654,32.474 L17.654,34 L11.522,34 L11.522,24.298 L13.286,24.298 L13.286,32.474 L17.654,32.474 Z" id="NL-Copy-5"></path>
                    <g id="Group-3">
                        <polygon id="Fill-1" points="12.9005484 1.02252721 12.610871 1.90153781 11.6733871 1.90153781 12.4317742 2.44478163 12.1420968 3.32372862 12.9005484 2.78048481 13.659 3.32372862 13.3693226 2.44478163 14.1277097 1.90153781 13.1902258 1.90153781"></polygon>
                        <polygon id="Fill-2" points="15.265529 5.23845159 14.9758516 6.11746219 15.7343032 5.57421837 16.4926903 6.11746219 16.2030129 5.23845159 16.9614645 4.69520777 16.0239806 4.69520777 15.7343032 3.81626078 15.4445613 4.69520777 14.5071419 4.69520777"></polygon>
                        <polygon id="Fill-3" points="16.4818516 8.51144947 15.5443677 8.51144947 16.3027548 9.05475689 16.0130774 9.93370389 16.771529 9.39046007 17.5299806 9.93370389 17.2403032 9.05475689 17.9986903 8.51151307 17.9986903 8.51144947 17.0612065 8.51144947 16.771529 7.63243887"></polygon>
                        <polygon id="Fill-4" points="16.0239742 12.327742 15.7342968 11.4487314 15.4446194 12.327742 14.5071355 12.327742 15.2655226 12.8709859 14.9758452 13.7499329 15.7342968 13.206689 16.4927484 13.7499329 16.2030065 12.8709859 16.9614581 12.327742"></polygon>
                        <polygon id="Fill-5" points="9.03362581 -1.90812721e-05 9.03162581 0.0060869258 9.02956129 -1.90812721e-05 8.73988387 0.878991519 7.80646452 0.878991519 7.8024 0.878991519 8.5607871 1.42223534 8.27110968 2.30118233 8.2764 2.29742968 8.27517419 2.30118233 9.03162581 1.75940141 9.7880129 2.30118233 9.7867871 2.29742968 9.79207742 2.30118233 9.5024 1.42223534 10.2607871 0.878991519 10.2567226 0.878991519 9.32330323 0.878991519"></polygon>
                        <polygon id="Fill-6" points="5.45233548 1.90152509 5.16265806 1.02251449 4.87298065 1.90152509 3.93549677 1.90152509 4.69394839 2.4447689 4.40420645 3.3237159 5.16265806 2.78047208 5.92110968 3.3237159 5.63136774 2.4447689 6.38981935 1.90152509"></polygon>
                        <polygon id="Fill-7" points="2.32890968 3.81623534 2.03923226 4.69518233 1.10174839 4.69518233 1.86013548 5.23842615 1.57045806 6.11743675 2.32890968 5.57419293 3.08736129 6.11743675 2.79768387 5.23842615 3.55607097 4.69518233 2.6185871 4.69518233"></polygon>
                        <polygon id="Fill-8" points="1.00196774 8.51144947 0.064483871 8.51144947 0.822935484 9.05475689 0.533258065 9.93370389 1.29164516 9.39046007 2.05016129 9.93370389 1.76041935 9.05475689 2.51887097 8.51144947 1.5813871 8.51144947 1.29164516 7.63243887"></polygon>
                        <polygon id="Fill-9" points="2.61860645 12.327742 2.32892903 11.4487314 2.03925161 12.327742 1.10176774 12.327742 1.86015484 12.8709859 1.57047742 13.7499329 2.32892903 13.206689 3.08738065 13.7499329 2.79763871 12.8709859 3.55609032 12.327742"></polygon>
                        <polygon id="Fill-10" points="12.9005484 14.2432664 12.610871 15.1222134 11.6733871 15.1222134 12.4317742 15.6654572 12.1420968 16.5445314 12.9005484 16.0012876 13.659 16.5445314 13.3693226 15.6654572 14.1277097 15.1222134 13.1902258 15.1222134"></polygon>
                        <polygon id="Fill-11" points="9.03159355 15.6438 9.02952903 15.637694 8.73985161 16.5165774 7.80643226 16.5165774 7.80243226 16.5165774 8.56081935 17.0598212 8.27114194 17.9388954 8.27643226 17.9350792 8.27520645 17.9388954 9.03159355 17.3970509 9.78798065 17.9388954 9.78675484 17.9350792 9.79204516 17.9388954 9.50236774 17.0598212 10.2608194 16.5165774 10.2567548 16.5165774 9.32333548 16.5165774 9.03359355 15.637694"></polygon>
                        <polygon id="Fill-12" points="5.45233548 15.1222325 5.16265806 14.2432855 4.87298065 15.1222325 3.93549677 15.1222325 4.69394839 15.6654763 4.40420645 16.5444869 5.16265806 16.0012431 5.92110968 16.5444869 5.63136774 15.6654763 6.38981935 15.1222325"></polygon>
                    </g>
                </g>
            </g>
        </g>
    </g>
</svg>
